<?xml version="1.0" encoding="UTF-8"?>
<!-- Generator: visioncortex VTracer 0.6.4 -->
<svg version="1.1" xmlns="http://www.w3.org/2000/svg" width="704" height="976">
<path d="M0 0 C0.99 0.495 0.99 0.495 2 1 C2.683 3.531 2.683 3.531 3.297 6.93 C3.531 8.188 3.764 9.446 4.005 10.742 C4.127 11.416 4.248 12.09 4.373 12.784 C5.01 16.315 5.674 19.841 6.34 23.367 C6.475 24.087 6.61 24.806 6.75 25.547 C8.329 33.861 10.189 42.108 12.083 50.355 C17.828 75.525 16.556 98.721 3.192 121.105 C0.23 125.814 -3.22 129.934 -7 134 C-8.323 135.46 -8.323 135.46 -9.672 136.949 C-27.04 155.563 -54.533 171.678 -80 175 C-77.434 172.348 -74.829 170.02 -71.875 167.812 C-66.664 163.804 -61.804 159.485 -57 155 C-56.197 154.263 -55.394 153.525 -54.566 152.766 C-28.059 127.488 -15.001 93.711 -11 58 C-11.226 58.647 -11.451 59.295 -11.683 59.962 C-16.909 74.894 -22.426 89.605 -29 104 C-29.5 105.096 -29.5 105.096 -30.011 106.213 C-39.761 127.262 -53.31 146.056 -72 160 C-72.66 159.67 -73.32 159.34 -74 159 C-73.619 157.664 -73.619 157.664 -73.23 156.301 C-70.7 146.833 -69.442 137.507 -68.562 127.75 C-65.595 95.795 -55.382 73.301 -33.586 49.797 C-30.986 46.984 -28.437 44.14 -25.938 41.238 C-24.37 39.428 -22.784 37.639 -21.188 35.855 C-11.672 25.127 -3.446 14.187 0 0 Z " fill="#000000" transform="translate(586,16)"/>
<path d="M0 0 C0.99 0.495 0.99 0.495 2 1 C1.278 2.031 0.556 3.062 -0.188 4.125 C-10.797 21.346 -11.099 42.312 -12.689 61.891 C-15.384 94.936 -23.049 119.381 -46 144 C-60.1 158.819 -60.1 158.819 -71 176 C-71.33 176 -71.66 176 -72 176 C-80.448 134.242 -57.958 91.114 -40 55 C-67.166 81.896 -79.675 121.411 -80.18 159.053 C-80.211 169.384 -79.646 179.692 -79 190 C-82.444 186.044 -84.688 182.027 -86.875 177.312 C-87.219 176.571 -87.564 175.83 -87.919 175.067 C-101.157 145.871 -105.928 112.436 -94.496 81.848 C-82.911 52.766 -58.64 37.111 -32.851 21.714 C-21.584 14.941 -10.453 7.987 0 0 Z " fill="#000000" transform="translate(523,64)"/>
<path d="M0 0 C2.494 1.703 4.902 3.462 7.285 5.316 C8.115 5.94 8.945 6.564 9.801 7.207 C27.042 21.846 32.164 47.698 37.035 68.629 C37.333 69.898 37.333 69.898 37.637 71.192 C40.508 84.042 41.654 96.788 41.598 109.941 C41.596 110.634 41.593 111.327 41.591 112.041 C41.466 137.346 36.398 160.531 25.285 183.316 C24.984 183.938 24.683 184.56 24.372 185.201 C17.428 199.327 8.418 211.839 -1.499 224.012 C-5.69 229.191 -9.394 234.533 -12.715 240.316 C-13.162 241.087 -13.609 241.858 -14.07 242.652 C-26.926 266.465 -28.544 296.432 -30.902 322.816 C-30.986 323.753 -31.07 324.69 -31.157 325.656 C-32.182 335.098 -32.182 335.098 -30.715 344.316 C-30.499 343.481 -30.283 342.645 -30.06 341.785 C-29.235 338.611 -28.405 335.439 -27.572 332.268 C-27.215 330.909 -26.862 329.55 -26.51 328.19 C-24.054 318.694 -21.17 309.5 -17.715 300.316 C-16.576 303.707 -16.875 305.868 -17.789 309.297 C-18.043 310.284 -18.296 311.271 -18.558 312.287 C-18.837 313.349 -19.115 314.41 -19.402 315.504 C-23.922 333.524 -27.16 351.718 -27.715 370.316 C-27.545 369.699 -27.375 369.082 -27.199 368.447 C-14.223 321.765 7.395 275.83 50.902 250.582 C60.684 245.122 70.428 241.052 81.285 238.316 C82.199 238.073 83.113 237.829 84.055 237.578 C104.384 232.988 126.846 236.918 144.73 247.32 C161.547 258.432 174.476 274.089 178.906 294.086 C182.823 317.145 176.533 339.733 163.531 358.902 C161.857 361.117 160.105 363.22 158.285 365.316 C157.632 366.113 156.978 366.91 156.305 367.73 C143.201 383.149 126.216 392.876 106.285 396.316 C102.913 396.565 99.653 396.608 96.285 396.316 C99.735 394.507 103.301 393.089 106.91 391.629 C113.336 388.934 118.822 385.631 124.285 381.316 C124.97 380.807 125.654 380.298 126.359 379.773 C140.415 368.59 147.762 350.684 150.285 333.316 C152.17 315.037 148.261 297.753 137.441 282.762 C129.256 272.799 117.76 267.037 105.285 264.316 C79.033 262.306 55.483 269.268 35.285 286.316 C3.483 314.417 -23.097 364.425 -28.715 406.316 C-28.757 409.562 -28.463 412.719 -28.09 415.941 C-27.992 416.845 -27.894 417.749 -27.794 418.68 C-21.566 473.164 0.619 525.175 44.316 560.035 C59.364 571.598 75.135 581.195 92.285 589.316 C92.926 589.624 93.567 589.931 94.228 590.248 C103.885 594.84 113.789 598.665 123.817 602.358 C138.31 607.696 152.385 613.553 166.285 620.316 C167.366 620.839 168.446 621.361 169.559 621.899 C200.466 636.9 228.319 654.78 254.285 677.316 C255.126 678.043 255.966 678.77 256.832 679.52 C267.89 689.276 278.245 699.653 287.285 711.316 C288.499 712.823 288.499 712.823 289.738 714.359 C307.752 736.885 323.425 766.089 322.348 795.691 C321.805 799.305 321.275 800.329 318.91 803.316 C313.486 806.889 306.443 808.763 299.973 808.254 C295.676 807.162 293.552 806.352 290.285 803.316 C289.214 799.535 289.038 795.726 288.785 791.816 C284.817 748.994 259.423 711.346 227.416 683.702 C224.001 680.883 220.49 678.206 216.938 675.563 C215.318 674.341 213.734 673.084 212.156 671.809 C196.884 659.614 179.561 650.338 162.285 641.316 C161.489 640.901 160.693 640.485 159.874 640.057 C146.112 632.975 131.737 627.404 117.312 621.844 C102.744 616.217 88.341 610.21 74.535 602.879 C73.657 602.415 72.78 601.951 71.875 601.473 C24.587 576.158 -11.249 535.661 -27.63 484.455 C-31.924 470.176 -34.331 455.66 -36.329 440.906 C-36.59 439.154 -36.9 437.409 -37.254 435.674 C-37.859 432.58 -37.846 429.657 -37.84 426.504 C-37.84 425.429 -37.84 425.429 -37.841 424.332 C-37.814 419.282 -37.63 414.251 -37.383 409.207 C-35.404 366.683 -41.595 323.549 -55.715 283.316 C-56.006 282.478 -56.297 281.64 -56.597 280.776 C-65.988 254.038 -78.364 228.408 -104.84 215.185 C-117.587 209.282 -130.932 206.928 -144.902 207.004 C-145.994 207.01 -147.086 207.015 -148.212 207.021 C-164.294 207.261 -179.868 209.799 -192.02 221.34 C-196.176 226.186 -199.191 231.48 -198.902 238.004 C-197.969 242.931 -195.505 246.131 -191.715 249.316 C-185.533 253.227 -178.867 253.016 -171.715 252.316 C-169.074 251.567 -167.126 250.662 -164.715 249.316 C-166.147 252.836 -167.798 254.384 -170.965 256.441 C-171.713 256.939 -172.46 257.437 -173.23 257.949 C-180.899 262.169 -189.723 262.593 -198.227 260.781 C-205.515 258.241 -209.212 254.26 -212.645 247.59 C-217.692 236.869 -216.707 225.278 -212.922 214.297 C-207.526 200.973 -198.348 191.764 -185.402 185.504 C-164.577 176.782 -142.491 175.838 -121.152 183.504 C-92.836 195.204 -73.89 217.803 -59.776 244.324 C-59.089 245.613 -58.395 246.899 -57.692 248.18 C-47.062 267.59 -40.815 288.881 -35.715 310.316 C-35.645 309.22 -35.575 308.123 -35.503 306.994 C-32.809 265.406 -32.809 265.406 -28.715 248.316 C-28.532 247.533 -28.349 246.749 -28.161 245.941 C-23.339 225.742 -14.147 208.197 -2.655 191.006 C4.451 180.359 11.432 169.717 17.285 158.316 C17.767 157.381 18.249 156.445 18.746 155.48 C24.715 143.145 28.016 129.77 30.285 116.316 C30.418 115.533 30.551 114.749 30.688 113.941 C35.059 82.32 24.164 43.476 6.285 17.316 C0.816 10.184 -5.052 4.204 -13.715 1.316 C-23.059 0.161 -29.926 2.095 -37.715 7.316 C-46.056 14.021 -52.73 22.981 -55.715 33.316 C-56.215 37.601 -56.215 37.601 -54.215 41.191 C-53.472 41.748 -53.472 41.748 -52.715 42.316 C-52.632 41.45 -52.55 40.584 -52.465 39.691 C-51.547 35.563 -49.73 32.331 -46.715 29.316 C-42.029 28.919 -39.629 28.851 -35.402 31.004 C-31.11 34.697 -29.639 37.641 -28.84 43.191 C-28.505 47.985 -29.173 51.135 -31.715 55.316 C-36.661 60.263 -41.173 62.324 -48.09 62.691 C-53.848 62.527 -58.196 60.619 -62.441 56.738 C-68.09 50.561 -70.688 43.646 -70.715 35.316 C-69.934 23.877 -64.834 14.297 -56.543 6.457 C-40.307 -5.832 -18.138 -11.248 0 0 Z " fill="#000000" transform="translate(366.71484375,87.68359375)"/>
<path d="M0 0 C13.379 -0.093 26.759 -0.164 40.138 -0.207 C46.353 -0.228 52.567 -0.256 58.781 -0.302 C64.792 -0.346 70.802 -0.369 76.813 -0.38 C79.093 -0.387 81.372 -0.401 83.651 -0.423 C116.198 -0.721 144.333 9.176 168.176 31.945 C185.75 49.691 191.801 72.672 192.032 97.044 C191.87 112.152 189.6 127.147 187 142 C186.34 141.67 185.68 141.34 185 141 C184.441 139.276 184.441 139.276 183.992 137.012 C183.815 136.17 183.637 135.328 183.454 134.461 C183.263 133.546 183.072 132.631 182.875 131.688 C175.34 98.105 156.845 69.964 128 51 C111.398 40.534 93.629 33.915 75 28 C74.505 28.495 74.505 28.495 74 29 C74.541 29.28 75.082 29.559 75.639 29.848 C87.036 35.79 98.056 42.111 108.75 49.25 C109.724 49.898 110.698 50.547 111.701 51.215 C134.616 66.722 155.017 85.844 166.5 111.375 C166.989 112.462 166.989 112.462 167.489 113.571 C169.649 118.609 170.984 123.618 172 129 C171.196 128.443 170.391 127.886 169.562 127.312 C168.377 126.538 167.19 125.767 166 125 C165.089 124.387 165.089 124.387 164.16 123.762 C154.883 118.01 143.836 116.482 133.246 114.605 C103.03 109.202 76.996 95.078 58.582 69.957 C52.987 61.675 48.434 52.674 43.62 43.927 C33.825 26.231 23.72 11.14 5 2 C2.273 1.289 2.273 1.289 0 1 C0 0.67 0 0.34 0 0 Z " fill="#000000" transform="translate(149,162)"/>
<path d="M0 0 C0.99 0.495 0.99 0.495 2 1 C1.515 1.94 1.029 2.881 0.529 3.85 C-3.21 11.167 -6.752 18.529 -9.965 26.094 C-10.292 26.863 -10.619 27.633 -10.956 28.426 C-12.286 31.569 -13.609 34.714 -14.925 37.864 C-20.974 52.315 -27.44 67.212 -38 79 C-39.164 80.321 -39.164 80.321 -40.352 81.668 C-56.014 98.416 -79.716 108.027 -102.507 109.177 C-106.567 109.244 -110.626 109.298 -114.688 109.312 C-115.79 109.317 -115.79 109.317 -116.915 109.321 C-129.018 109.332 -140.293 108.24 -152 105 C-153.678 104.573 -153.678 104.573 -155.391 104.137 C-160.098 102.855 -160.098 102.855 -162 102 C-162.33 101.34 -162.66 100.68 -163 100 C-162.342 99.93 -161.684 99.86 -161.007 99.788 C-122.814 95.656 -85.546 86.343 -57 59 C-55.926 58.135 -54.843 57.279 -53.75 56.438 C-51.356 54.316 -49.705 52.401 -47.828 49.848 C-47.03 48.767 -47.03 48.767 -46.216 47.664 C-45.815 47.115 -45.413 46.566 -45 46 C-45.648 46.438 -46.297 46.875 -46.965 47.326 C-72.444 64.49 -72.444 64.49 -84 71 C-84.698 71.399 -85.396 71.798 -86.115 72.208 C-105.826 83.38 -127.936 93.141 -151 92 C-150.34 91.505 -149.68 91.01 -149 90.5 C-142.991 85.493 -137.906 80.051 -133.188 73.812 C-114.223 48.747 -93.859 33.025 -63.128 24.617 C-60.817 23.984 -58.51 23.338 -56.204 22.688 C-50.711 21.142 -45.215 19.612 -39.715 18.093 C-30.728 15.599 -22.102 12.862 -13.625 8.938 C-12.94 8.621 -12.256 8.304 -11.55 7.978 C-7.14 5.827 -3.66 3.269 0 0 Z " fill="#000000" transform="translate(602,165)"/>
<path d="M0 0 C0.812 1.625 0.812 1.625 1 4 C-2.461 9.513 -7.65 12.861 -12.836 16.672 C-29.765 29.128 -43.853 43.882 -56 61 C-56.456 61.638 -56.912 62.276 -57.382 62.933 C-69.572 80.134 -79.712 99.503 -85 120 C-86.385 115.526 -85.26 111.903 -84.062 107.5 C-83.837 106.663 -83.611 105.827 -83.378 104.965 C-76.954 82.12 -66.118 61.014 -52 42 C-51.308 41.063 -50.616 40.126 -49.902 39.16 C-40.061 26.55 -17.881 -1.578 0 0 Z " fill="#000000" transform="translate(437,277)"/>
<path d="M0 0 C3.375 3.776 4.495 6.892 4.625 11.938 C3.1 17.655 0.59 20.753 -4.375 23.938 C-8.022 24.87 -11.618 24.938 -15.375 24.938 C-21.884 44.569 -15.086 65.669 -7.375 83.938 C-7.097 84.597 -6.819 85.256 -6.533 85.935 C-0.415 100.16 7.149 114.661 16.625 126.938 C16.295 127.597 15.965 128.257 15.625 128.938 C-8.136 104.334 -30.811 72.098 -31.688 36.625 C-31.454 23.822 -28.636 11.625 -21.375 0.938 C-13.883 -4.934 -8.062 -4.927 0 0 Z " fill="#000000" transform="translate(322.375,448.0625)"/>
<path d="M0 0 C0.953 -0.004 1.905 -0.008 2.887 -0.012 C8.109 -0.005 13.27 0.189 18.477 0.598 C27.766 1.314 37.064 1.478 46.375 1.688 C48.19 1.731 50.005 1.774 51.82 1.818 C56.213 1.924 60.607 2.026 65 2.125 C63.219 3.312 61.419 4.472 59.582 5.57 C46.16 13.71 39.784 23.872 32 37.125 C19.063 59.131 4.222 74.083 -21.062 81.25 C-26.785 82.716 -32.474 83.698 -38.312 84.562 C-45.312 85.608 -50.903 87.416 -57 91.125 C-58.328 91.803 -59.66 92.473 -61 93.125 C-51.315 60.48 -25.761 42.126 2.695 26.403 C5.814 24.673 8.908 22.902 12 21.125 C-0.766 24.578 -12.474 28.6 -24 35.125 C-25.491 35.956 -25.491 35.956 -27.012 36.805 C-50.536 50.832 -63.011 73.762 -69.629 99.578 C-69.751 100.089 -69.874 100.599 -70 101.125 C-70.66 101.125 -71.32 101.125 -72 101.125 C-75.676 77.263 -77.499 51.128 -63.102 30.391 C-51.235 14.883 -33.197 4.68 -14.312 0.535 C-9.537 -0.056 -4.807 -0.019 0 0 Z " fill="#000000" transform="translate(595,516.875)"/>
<path d="M0 0 C1.275 0.003 1.275 0.003 2.575 0.006 C76.395 0.271 154.578 27.181 210.125 76.312 C206.473 76.312 205.385 75.386 202.375 73.375 C195.403 68.824 188.311 64.517 181.125 60.312 C180.467 59.927 179.809 59.542 179.131 59.145 C111.216 19.69 28.902 -0.772 -48.56 19.664 C-53.863 21.149 -58.881 23.001 -63.875 25.312 C-64.947 25.802 -66.02 26.292 -67.125 26.797 C-80.486 33.414 -89.508 43.205 -97.875 55.312 C-94.61 52.821 -91.708 50.181 -88.881 47.202 C-77.542 35.309 -61.104 21.918 -43.938 21.188 C-43.257 21.229 -42.576 21.27 -41.875 21.312 C-42.754 22.264 -43.633 23.215 -44.539 24.195 C-48.217 28.486 -50.67 33.187 -53.25 38.188 C-63.583 57.462 -77.997 65.388 -97.918 72.84 C-105.597 75.73 -111.684 78.902 -117.875 84.312 C-119.36 85.303 -119.36 85.303 -120.875 86.312 C-120.69 85.648 -120.504 84.984 -120.313 84.3 C-118.98 79.473 -117.696 74.645 -116.551 69.77 C-111.508 48.638 -104.789 32.353 -85.875 20.312 C-72.821 12.615 -58.551 7.428 -43.812 4.062 C-43.154 3.911 -42.495 3.76 -41.817 3.604 C-27.933 0.66 -14.139 -0.063 0 0 Z " fill="#000000" transform="translate(136.875,519.6875)"/>
<path d="M0 0 C10.825 8.563 17.56 17.339 19.281 31.277 C19.773 42.617 15.726 53.571 8.219 62 C0.017 69.798 -8.655 72.692 -19.777 72.53 C-25.599 72.26 -31.04 71.245 -36 68 C-36.66 67.01 -37.32 66.02 -38 65 C-37.299 65.289 -36.597 65.577 -35.875 65.875 C-34.926 66.246 -33.978 66.618 -33 67 C-31.732 67.557 -31.732 67.557 -30.438 68.125 C-21.471 70.407 -13.077 69.515 -5 65 C2.286 60.19 6.689 53.357 9 45 C9.824 36.289 9.762 28.513 5 21 C4.564 20.304 4.129 19.608 3.68 18.891 C-2.774 9.51 -12.186 4.123 -23.188 1.688 C-36.45 -0.371 -48.628 2.105 -59.688 9.625 C-70.663 18.095 -77.426 29.374 -80 43 C-81.736 58.879 -77.91 72.652 -68.188 85.371 C-56.724 99.076 -39.388 107.486 -21.688 109.228 C-9.425 110.03 4.043 109.097 15 103 C14.196 102.216 13.391 101.433 12.562 100.625 C9.152 96.525 8.711 92.218 9 87 C10.791 81.726 13.941 77.794 18.785 74.953 C23.46 72.834 26.976 72.814 31.891 74.203 C36.059 75.778 39.022 77.786 41.812 81.25 C43.974 86.256 44.27 90.409 43.375 95.688 C39.9 104.058 30.888 108.358 23 112 C3.509 119.606 -19.186 121.439 -39 114 C-40.591 113.439 -40.591 113.439 -42.215 112.867 C-53.545 108.552 -62.351 101.357 -71 93 C-71.639 92.386 -72.279 91.773 -72.938 91.141 C-84.284 79.288 -88.527 63.541 -88.42 47.554 C-87.934 30.933 -81.071 17.463 -69.672 5.477 C-50.842 -11.977 -20.997 -16.014 0 0 Z " fill="#000000" transform="translate(477,533)"/>
<path d="M0 0 C-3.12 1.04 -4.639 0.994 -7.854 0.671 C-9.332 0.533 -9.332 0.533 -10.839 0.392 C-11.907 0.29 -12.974 0.188 -14.074 0.082 C-27.336 -1.079 -40.506 -1.357 -53.812 -1.312 C-55.51 -1.31 -55.51 -1.31 -57.242 -1.307 C-74.334 -1.261 -91.11 -0.853 -108 2 C-109.039 2.172 -110.077 2.343 -111.147 2.52 C-132.729 6.222 -155.809 12.348 -172 28 C-173.271 30.12 -173.271 30.12 -174 32 C-173.216 32.866 -172.433 33.732 -171.625 34.625 C-167.873 39.209 -166.771 43.094 -167.125 49 C-168.056 56.066 -171.745 60.371 -177.156 64.738 C-182.28 68.244 -187.56 68.379 -193.508 67.602 C-200.347 65.951 -205.027 61.608 -209 56 C-211.513 51.571 -211.652 46.967 -211 42 C-206.749 28.172 -192.746 16.47 -181 9 C-179.474 8.025 -179.474 8.025 -177.918 7.031 C-163.842 -1.49 -148.108 -6.817 -132 -10 C-131.272 -10.15 -130.545 -10.299 -129.795 -10.453 C-87.643 -18.72 -40.701 -12.277 0 0 Z " fill="#000000" transform="translate(328,592)"/>
<path d="M0 0 C3.145 3.728 4.657 6.096 4.285 10.91 C3.838 14.518 3.446 15.552 1.098 18.535 C-3.818 22.307 -6.331 22.678 -12.59 22.598 C-12.052 56.627 9.421 82.346 31.438 106.379 C33.519 108.72 35.474 111.137 37.41 113.598 C29.163 109.851 22.378 102.785 15.77 96.73 C13.735 94.891 11.653 93.152 9.535 91.41 C-8.468 75.585 -22.897 52.626 -25.59 28.598 C-25.638 19.102 -25.612 8.53 -19.168 0.918 C-13.718 -4.054 -5.81 -5.125 0 0 Z " fill="#000000" transform="translate(556.58984375,615.40234375)"/>
<path d="M0 0 C0.919 0.476 0.919 0.476 1.857 0.962 C11.067 5.782 19.218 11.041 27 18 C27.839 18.731 28.678 19.462 29.543 20.215 C41.049 30.365 51.469 41.204 60 54 C55.922 52.507 52.356 50.526 48.625 48.312 C17.158 30.126 -16.529 24.235 -52.008 33.219 C-66.374 37.137 -79.747 43.289 -93 50 C-91.36 49.654 -91.36 49.654 -89.688 49.301 C-86.382 48.603 -83.076 47.909 -79.77 47.215 C-75.807 46.383 -71.846 45.54 -67.887 44.691 C-65.82 44.253 -63.754 43.814 -61.688 43.375 C-60.736 43.169 -59.784 42.963 -58.803 42.751 C-46.575 40.168 -34.605 38.644 -22.096 38.684 C-20.067 38.687 -18.039 38.664 -16.01 38.639 C-3.491 38.577 8.354 40.71 20.188 44.812 C20.935 45.067 21.683 45.321 22.453 45.583 C39.834 51.667 39.834 51.667 42 56 C41.033 56.086 40.066 56.173 39.07 56.262 C26.993 57.565 19.276 61.362 9.375 68.312 C-14.247 84.862 -41.632 91.999 -70.407 86.973 C-80.729 84.889 -90.803 81.819 -100.904 78.871 C-118.104 73.879 -133.377 70.96 -151.102 75.441 C-154 76 -154 76 -157 75 C-156.224 74.357 -155.448 73.714 -154.648 73.051 C-138.892 59.969 -138.892 59.969 -124.859 45.113 C-121.751 41.581 -118.362 38.322 -114.998 35.035 C-112.139 32.294 -112.139 32.294 -110 29 C-109.34 29 -108.68 29 -108 29 C-108 28.34 -108 27.68 -108 27 C-106.566 25.555 -106.566 25.555 -104.562 23.875 C-102.332 21.99 -100.121 20.114 -97.992 18.113 C-83.993 4.992 -66.906 -4.391 -48 -8 C-46.762 -8.247 -45.525 -8.495 -44.25 -8.75 C-29.045 -10.267 -13.454 -7.015 0 0 Z " fill="#000000" transform="translate(359,642)"/>
<path d="M0 0 C-3.624 1.208 -4.553 0.69 -8.074 -0.59 C-9.118 -0.958 -10.162 -1.327 -11.237 -1.706 C-12.945 -2.316 -12.945 -2.316 -14.688 -2.938 C-41.942 -12.314 -71.078 -20.054 -100 -21 C-100.937 -21.04 -101.874 -21.08 -102.84 -21.121 C-119.129 -21.493 -137.491 -19.727 -151 -10 C-150.484 -9.031 -149.969 -8.061 -149.438 -7.062 C-147.522 -2.557 -147.744 1.317 -149 6 C-151.822 11.341 -155.272 14.668 -160.688 17.312 C-166.662 18.552 -171.944 18.066 -177.375 15.25 C-181.425 11.778 -184.686 8.257 -186 3 C-186.102 -2.992 -184.942 -8.348 -181 -13 C-133.437 -59.183 -48.65 -28.708 0 0 Z " fill="#000000" transform="translate(546,741)"/>
<path d="M0 0 C18.915 17.113 30.678 44.673 32 70 C33.285 95.832 26.547 120.435 9 140 C8.199 140.895 7.399 141.789 6.574 142.711 C-8.929 159.11 -31.137 170.79 -53.906 172.177 C-78.307 172.671 -100.182 170.035 -119 153 C-119.66 152.432 -120.32 151.863 -121 151.277 C-131.127 141.961 -137.239 130.068 -141 117 C-141.245 116.151 -141.49 115.301 -141.742 114.426 C-145.484 98.921 -143.044 81.408 -134.906 67.664 C-130.413 61.385 -124.968 55.931 -119.484 50.516 C-117.289 48.292 -115.215 45.999 -113.157 43.648 C-108.005 37.813 -102.798 32.927 -96 29 C-95.381 28.642 -94.762 28.283 -94.125 27.914 C-86.188 24.185 -75.568 24.844 -67.375 27.375 C-57.176 31.679 -48.999 39.742 -41.434 47.594 C-37.57 51.414 -33.317 54.712 -29 58 C-31.619 59.309 -33.39 58.956 -36.312 58.812 C-44.257 58.736 -51.113 61.161 -58.48 63.934 C-69.911 67.935 -83.001 67.331 -93.893 62.089 C-96.739 60.684 -99.575 59.265 -102.381 57.781 C-105.917 55.928 -108.98 54.513 -113 54 C-110.01 51.538 -107.209 50.159 -103.562 48.875 C-102.636 48.542 -101.709 48.21 -100.754 47.867 C-95.507 46.215 -90.61 45.808 -85.125 45.812 C-84.388 45.812 -83.65 45.811 -82.891 45.811 C-75.486 45.88 -68.303 46.809 -61 48 C-63.04 47.349 -65.082 46.705 -67.125 46.062 C-68.262 45.703 -69.399 45.343 -70.57 44.973 C-84.278 41.085 -97.492 42.533 -110.035 49.168 C-121.501 56.253 -127.592 64.862 -131.211 77.645 C-135.186 94.55 -131.609 110.971 -122.75 125.75 C-112.697 140.614 -97.677 149.729 -80.266 153.609 C-57.114 156.379 -33.387 152.655 -14.562 138.125 C-13.019 136.775 -11.498 135.4 -10 134 C-9.161 133.251 -8.322 132.502 -7.457 131.73 C7.103 118.095 15.404 99.205 16.32 79.371 C17.044 53.053 9.603 30.035 -8 10 C-8.739 9.288 -9.477 8.577 -10.238 7.844 C-12 6 -12 6 -12 4 C-12.554 3.758 -13.109 3.515 -13.68 3.266 C-16.491 1.732 -18.694 -0.166 -21.125 -2.25 C-45.414 -22.304 -75.285 -26.16 -105.801 -23.782 C-139.605 -19.847 -171.804 -1.425 -193 25 C-201.585 36.493 -208.025 49.589 -213 63 C-212.091 62.948 -212.091 62.948 -211.164 62.895 C-200.759 62.558 -192.756 64.938 -185 72 C-178.82 78.18 -175.824 85.301 -175.5 94 C-175.854 102.918 -178.968 109.783 -185.078 116.246 C-193.202 123.66 -201.64 125.504 -212.496 125.309 C-221.369 124.527 -228.051 120.519 -234 114 C-239.432 106.978 -241.556 99.895 -241 91 C-236.815 60.693 -223.134 32.997 -202 11 C-201.108 10.045 -200.216 9.09 -199.297 8.105 C-145.541 -48.464 -57.691 -49.399 0 0 Z " fill="#000000" transform="translate(595,785)"/>
</svg>
